<svg xmlns="http://www.w3.org/2000/svg" width="1954" height="623" fill="none" viewBox="0 0 1954 623"><mask id="mask0_17_275" style="mask-type:alpha" width="1954" height="605" x="0" y="18" maskUnits="userSpaceOnUse"><path fill="url(#paint0_radial_17_275)" d="M0 29.4604L86.3034 20.9957C145.444 15.1951 205.144 19.9834 262.604 35.1359L656.929 139.122C730.044 158.402 806.58 160.849 880.777 146.278L1485.35 27.5471C1577.03 9.54301 1671.91 17.5847 1759.25 50.7604L1954 124.736V623H0V29.4604Z"/></mask><g mask="url(#mask0_17_275)"><g filter="url(#filter0_f_17_275)"><path stroke="#DFC900" stroke-linecap="round" stroke-width="13" d="M0 257.46L86.3034 248.996C145.444 243.195 205.144 247.983 262.604 263.136L656.929 367.122C730.044 386.402 806.58 388.849 880.777 374.278L1485.35 255.547C1577.03 237.543 1671.91 245.585 1759.25 278.76L1954 352.736"/></g><path stroke="url(#paint1_linear_17_275)" stroke-linecap="round" stroke-width="9" d="M0 257.46L86.3034 248.996C145.444 243.195 205.144 247.983 262.604 263.136L656.929 367.122C730.044 386.402 806.58 388.849 880.777 374.278L1485.35 255.547C1577.03 237.543 1671.91 245.585 1759.25 278.76L1954 352.736"/></g><defs><filter id="filter0_f_17_275" width="2027" height="210.475" x="-36.5" y="209.675" color-interpolation-filters="sRGB" filterUnits="userSpaceOnUse"><feFlood flood-opacity="0" result="BackgroundImageFix"/><feBlend in="SourceGraphic" in2="BackgroundImageFix" mode="normal" result="shape"/><feGaussianBlur result="effect1_foregroundBlur_17_275" stdDeviation="15"/></filter><radialGradient id="paint0_radial_17_275" cx="0" cy="0" r="1" gradientTransform="translate(-249 119) rotate(6.88523) scale(2519.17 7901.21)" gradientUnits="userSpaceOnUse"><stop stop-color="#762929"/><stop offset="1" stop-color="#001CFF" stop-opacity="0"/></radialGradient><linearGradient id="paint1_linear_17_275" x1="0" x2="2046.5" y1="266" y2="396" gradientUnits="userSpaceOnUse"><stop stop-color="#DF0000"/><stop offset="1" stop-color="#5200FF"/></linearGradient></defs></svg>